<svg width="59" height="22" viewBox="0 0 59 22" fill="none" xmlns="http://www.w3.org/2000/svg">
<path fill-rule="evenodd" clip-rule="evenodd" d="M27.8225 17.4752C28.3201 16.1443 28.7217 14.5458 28.9859 12.6607C29.1276 11.6491 29.2845 10.1658 29.4568 8.20813H35.256C35.2636 8.20813 35.2712 8.20828 35.2788 8.20857C35.607 8.22119 35.8628 8.49743 35.8502 8.82558L35.4995 17.9427C35.4872 18.262 35.2248 18.5144 34.9053 18.5144H33.2973C32.8595 18.5144 32.5045 18.8694 32.5045 19.3072C32.5045 19.7451 32.8595 20.1 33.2973 20.1H35.4775C36.3532 20.1 37.0631 19.3901 37.0631 18.5144L37.4595 8.20813C37.4595 7.33244 36.7496 6.62254 35.8739 6.62254H29.5913C29.6709 5.65054 29.7536 4.58575 29.8394 3.42794C29.8717 2.99129 29.544 2.61109 29.1073 2.57874C28.6707 2.54639 28.2905 2.87414 28.2581 3.3108C28.1688 4.51669 28.0828 5.62069 28.0003 6.62254H25.3694C24.9315 6.62254 24.5766 6.97749 24.5766 7.41534C24.5766 7.85318 24.9315 8.20813 25.3694 8.20813H27.865C27.6999 10.07 27.55 11.4816 27.4156 12.4407C27.1673 14.2124 26.794 15.6986 26.3374 16.9199C26.0981 17.5599 25.8527 18.0822 25.6162 18.4944C25.5366 18.6333 25.4648 18.7474 25.4028 18.8378C25.3702 18.8853 25.3511 18.9109 25.3474 18.9155C25.0722 19.256 25.1251 19.7552 25.4656 20.0305C25.8061 20.3057 26.3053 20.2528 26.5805 19.9123C26.6736 19.7971 26.8159 19.5898 26.9916 19.2833C27.271 18.7963 27.5531 18.1959 27.8225 17.4752ZM48.5586 17.3184V7.72969H55.6831C56.3473 7.72969 56.8829 8.26047 56.8829 8.9117V16.4576C56.8829 17.1088 56.3473 17.6396 55.6831 17.6396H53.3916C52.7273 17.6396 52.1917 17.1088 52.1917 16.4576V10.1081C52.1917 9.67022 51.8368 9.31528 51.3989 9.31528C50.9611 9.31528 50.6062 9.67022 50.6062 10.1081V16.4576C50.6062 17.9877 51.8548 19.2252 53.3916 19.2252H55.6831C57.2199 19.2252 58.4685 17.9877 58.4685 16.4576V8.9117C58.4685 7.38157 57.2199 6.14411 55.6831 6.14411H48.5586V3.76573C48.5586 3.32788 48.2036 2.97294 47.7658 2.97294C47.3279 2.97294 46.973 3.32788 46.973 3.76573V6.14411H44.1982C43.7604 6.14411 43.4054 6.49905 43.4054 6.9369C43.4054 7.37475 43.7604 7.72969 44.1982 7.72969H46.973V12.465L44.3002 13.5341C43.8936 13.6968 43.6959 14.1581 43.8585 14.5647C44.0211 14.9712 44.4825 15.1689 44.8891 15.0063L46.973 14.1727V17.3184C46.973 18.3666 46.0905 19.2252 44.991 19.2252C44.5532 19.2252 44.1982 19.5801 44.1982 20.018C44.1982 20.4558 44.5532 20.8108 44.991 20.8108C46.9566 20.8108 48.5586 19.2522 48.5586 17.3184Z" fill="black"/>
<path d="M13.3797 16.4636C13.874 15.9701 14.674 15.9714 15.1667 16.4665C15.6593 16.9616 15.6581 17.7631 15.1638 18.2566L12.9691 20.4481C10.9443 22.4699 7.64261 22.4992 5.58369 20.5162C5.57179 20.5048 4.655 19.6058 1.63058 16.6402C-0.381491 14.6673 -0.581941 11.5104 1.31147 9.4831L4.84172 5.7031C6.7209 3.69085 10.1849 3.47093 12.3335 5.20847L15.5398 7.80152C16.0828 8.24065 16.1676 9.03757 15.7292 9.58151C15.2909 10.1254 14.4953 10.2104 13.9523 9.77127L10.746 7.17824C9.62238 6.26954 7.65677 6.39434 6.68718 7.43259L3.15688 11.2126C2.23512 12.1996 2.33607 13.7895 3.39833 14.8311C5.61922 17.0088 7.33084 18.6871 7.33282 18.689C8.40324 19.72 10.134 19.7046 11.185 18.6551L13.3797 16.4636Z" fill="#FFA116"/>
<path fill-rule="evenodd" clip-rule="evenodd" d="M8.04824 14.2706C7.35039 14.2706 6.78467 13.7039 6.78467 13.0048C6.78467 12.3057 7.35039 11.739 8.04824 11.739H17.3671C18.0649 11.739 18.6306 12.3057 18.6306 13.0048C18.6306 13.7039 18.0649 14.2706 17.3671 14.2706H8.04824Z" fill="#B3B3B3"/>
<path fill-rule="evenodd" clip-rule="evenodd" d="M9.79343 0.401024C10.2702 -0.109469 11.0698 -0.136141 11.5794 0.34145C12.089 0.819042 12.1156 1.62004 11.6389 2.13054L3.15692 11.2126C2.23513 12.1995 2.33608 13.7894 3.39827 14.831L7.31536 18.6721C7.81405 19.1611 7.82258 19.9625 7.33442 20.4621C6.84626 20.9616 6.04626 20.9702 5.54757 20.4812L1.63046 16.6401C-0.381492 14.6671 -0.581942 11.5102 1.31155 9.48305L9.79343 0.401024Z" fill="black"/>
</svg>